<?xml version="1.0" encoding="utf-8"?>
<!-- Svg Vector Icons : http://www.onlinewebfonts.com/icon -->
<!DOCTYPE svg PUBLIC "-//W3C//DTD SVG 1.1//EN" "http://www.w3.org/Graphics/SVG/1.1/DTD/svg11.dtd">
<svg version="1.1" xmlns="http://www.w3.org/2000/svg" xmlns:xlink="http://www.w3.org/1999/xlink" fill="#CFD9F7" x="0px" y="0px" viewBox="0 0 1000 1000" enable-background="new 0 0 1000 1000" xml:space="preserve">
<metadata> Svg Vector Icons : http://www.onlinewebfonts.com/icon </metadata>
<g><path d="M570.6,766c-57.8,30.1-89.7,29.8-135.4,8C389.8,752.2,10,593.5,10,593.5l0,0v115c0,9.9,13.8,20.3,39.6,32.7c51.9,24.9,340.2,141.1,385.5,163c45.4,21.8,77.5,21.9,135.4-8c57.8-30.1,328.4-141.2,380.7-168.7l0,0c26.6-13.8,38.3-24.7,38.3-34.4c0-9.2,0-113.6,0-113.6h-0.1C989.3,579.6,628.1,735.8,570.6,766z"/><path d="M570.6,604.4c-57.8,30.1-89.7,29.8-135.4,8C389.8,590.5,10,431.7,10,431.7l0,0v115c0,9.9,13.8,20.3,39.6,32.7c51.9,25,340.2,141.2,385.5,163.2c45.4,21.8,77.5,21.9,135.4-8c57.8-30.1,328.4-141.2,380.7-168.7c26.6-13.8,38.3-24.7,38.3-34.4c0-9.2,0-113.6,0-113.6h-0.1C989.3,418,628.1,574.2,570.6,604.4z"/><path d="M989.6,266.6c0.5-9.9-12.7-18.7-38.8-28.3c-51-18.7-320.1-125.8-371.7-144.7c-51.7-18.9-72.6-18-133.2,3.6C385.5,118.7,98.8,231.3,47.9,251.3c-25.7,10-38.2,19.5-37.5,29.5v-0.1v113.2c0,0,379.5,159.9,425.2,181.7c45.4,21.8,77.5,21.9,135.4-8C628.6,537.2,990,378.4,990,378.4L989.6,266.6L989.6,266.6L989.6,266.6z M862.8,269.6L714,328.3l-134.1-53l148.6-58.8L862.8,269.6z M588,325.4l-68.7,100.6L361,360.3L588,325.4z M468.8,172.5l-21.9-40.5l68.5,26.7l64.4-21.2l-17.5,41.8L628,204l-84.9,8.7L524,258.6l-30.6-51.1l-98-8.7L468.8,172.5z M299.7,229.5c67,0,121.4,20.9,121.4,47c0,25.8-54.4,47-121.4,47s-121.4-20.9-121.4-47C178.4,250.8,232.7,229.5,299.7,229.5z"/></g>
</svg>